<svg width="245" height="87" viewBox="0 0 245 87" fill="none" xmlns="http://www.w3.org/2000/svg">
<g clip-path="url(#clip0_104_2)">
<path d="M113.339 17.4358H90.7407L113.339 1.26465H133.563L113.339 17.4358Z" fill="url(#paint0_linear_104_2)"/>
<path d="M131.661 15.7312H154.259L134.106 1.26465L123.926 9.35022L131.661 15.7312Z" fill="url(#paint1_linear_104_2)"/>
<path d="M111.1 0H106.417V7.4559H111.1V0Z" fill="url(#paint2_linear_104_2)"/>
<path d="M10.0996 35.265V36.1288C9.31447 36.1288 8.56503 36.3946 8.56503 37.059V54.4011C8.56503 57.1586 6.95909 59.5174 3.4617 59.5174C2.49813 59.5174 1.07063 59.1187 0 58.3546L1.10632 57.3912C1.78438 57.7566 3.49739 57.6237 4.10408 57.0589C5.06764 56.1619 4.96058 54.4344 4.96058 52.74V37.059C4.96058 36.3946 4.21114 36.1288 3.42601 36.1288V35.265H10.0996ZM39.1538 35.265V36.1288C38.333 36.1288 37.5835 36.3946 37.6192 37.059V50.6138C37.6192 54.2682 35.7635 59.4842 27.7694 59.4842C19.4899 59.4842 17.3843 54.2682 17.3843 51.1786V37.059C17.42 36.3946 16.6706 36.1288 15.8498 36.1288V35.265H23.2014V36.1288C22.3806 36.1288 21.6312 36.3946 21.6668 37.059V50.8796C21.6668 53.8031 22.8089 57.1586 27.7694 57.1586C32.73 57.1586 33.4794 53.8031 33.4794 51.0457V37.059C33.5151 36.3946 32.7657 36.1288 31.9449 36.1288V35.265H39.1538V35.265ZM69.1358 57.4908C69.3857 57.9559 70.0637 58.1553 70.7418 58.1553V59.019H63.8541V58.1553C64.5678 58.1553 64.8176 57.9227 64.7106 57.3912L62.0697 50.6802H51.4705L48.6868 57.4908C48.6155 57.9559 48.8653 58.1553 49.5433 58.1553V59.019H43.8333V58.1553C44.4757 58.1553 45.1538 57.9892 45.4393 57.5573L45.5463 57.2915V57.225V57.2583L54.4682 36.2617L59.8214 34.6338L69.0288 57.2915V57.225V57.2915L69.1358 57.4908ZM51.8274 49.0855H61.6058L56.895 37.1587L51.8274 49.0855ZM100.438 35.6305V36.4942C99.6532 36.4942 98.9395 36.7268 98.9038 37.3248V59.019H96.3343L80.489 42.3746V57.2915C80.5247 57.8895 81.2384 58.122 82.0235 58.122V59.019H75.4213V58.122C76.2065 58.122 76.9202 57.8895 76.9559 57.2915V37.3248C76.9202 36.7268 76.2065 36.4942 75.4213 36.4942V35.6305H79.0615L95.6562 52.7068V37.3248C95.6205 36.7268 94.9068 36.4942 94.1216 36.4942V35.6305H100.438V35.6305ZM118.719 59.019V58.1553C119.504 58.1553 120.254 57.8895 120.254 57.225V37.1587C120.254 36.4942 119.504 36.2285 118.719 36.2285V35.3647H128.355C131.638 35.3647 137.098 37.059 137.098 42.7733C137.098 48.4875 131.638 50.2483 128.748 50.2483H124.18V57.225C124.18 57.8895 124.929 58.1553 125.714 58.1553V59.019H118.719ZM128.426 48.1885C134.493 48.1553 134.208 37.0258 127.927 37.0922L124.215 37.1255C124.215 45.564 123.109 48.255 128.426 48.1885ZM166.367 57.4908C166.617 57.9559 167.295 58.1553 167.973 58.1553V59.019H161.085V58.1553C161.799 58.1553 162.049 57.9227 161.942 57.3912L159.301 50.6802H148.701L145.918 57.4908C145.846 57.9559 146.096 58.1553 146.774 58.1553V59.019H141.064V58.1553C141.707 58.1553 142.385 57.9892 142.67 57.5573L142.777 57.2915V57.225V57.2583L151.699 36.2617L157.052 34.6338L166.26 57.2915V57.225V57.2915L166.367 57.4908ZM149.058 49.0855H158.837L154.126 37.1587L149.058 49.0855ZM188.212 46.6271C189.747 47.358 192.887 48.0889 192.887 52.8065C192.887 56.9593 188.176 59.019 184.429 59.019H172.652V58.1553C173.259 58.1553 173.866 57.9892 174.08 57.6569L174.115 36.9594C173.901 36.5275 173.295 36.3614 172.652 36.3614V35.4976H183.608C187.82 35.4976 192.031 37.3913 192.031 41.2783C192.031 44.8995 189.782 45.863 188.212 46.6271V46.6271ZM177.791 37.2916L177.827 45.6969C179.433 45.6636 182.502 45.5972 183.715 45.5972C185.999 45.5972 188.105 43.8696 188.105 41.5441C188.105 38.554 185.143 37.2916 183.251 37.2916H177.791V37.2916ZM184.572 57.0589C186.713 57.0257 188.854 55.4975 188.854 52.142C188.854 49.9493 185.999 47.358 183.715 47.358L177.898 47.3912V53.5373C177.898 57.4244 179.897 57.0589 184.572 57.0589ZM174.187 57.3247V57.225V57.3247ZM213.876 54.4344H215.089V59.019H197.924V58.1553C198.673 58.1553 199.422 57.8895 199.458 57.225V37.059C199.494 36.3946 198.744 36.1288 197.924 36.1288V35.265H204.811V36.1288C204.026 36.1288 203.348 36.3614 203.277 36.9261L203.312 56.6935H211.271C213.091 56.6935 213.84 55.0988 213.876 54.4344V54.4344ZM203.277 36.9594V37.059V36.9594ZM232.581 59.7167C225.3 59.7167 220.126 54.0689 220.126 47.1254C220.126 40.5142 225.3 34.8663 232.581 34.8663C239.825 34.8663 245 40.5142 245 47.1254C245 54.0689 239.825 59.7167 232.581 59.7167ZM232.723 57.8895C237.577 57.8895 240.396 52.7732 240.396 47.1254C240.396 41.8431 237.577 36.7268 232.723 36.7268C227.87 36.7268 225.051 41.8431 225.051 47.1254C225.051 52.7732 227.87 57.8895 232.723 57.8895Z" fill="white"/>
<path d="M75.0738 83.016H72.8099V86.8912H71.6852V76.9789H75.2491C77.849 76.9653 78.9883 78.4202 78.9883 79.9567C78.9883 80.8133 78.6377 81.5611 78.0096 82.1186C77.367 82.6761 76.3299 83.016 75.0738 83.016ZM75.1614 77.9579H72.8099V82.0506H75.103C76.0524 82.0506 76.7973 81.7923 77.2209 81.3844C77.6445 80.9901 77.849 80.5006 77.849 79.9839C77.849 79.0185 77.2501 77.9579 75.1614 77.9579V77.9579ZM88.7452 86.8912H87.3868L84.2319 82.8801H82.0702V86.8912H80.9455V76.9789H84.6408C85.897 76.9789 86.9048 77.3052 87.489 77.8491C88.0733 78.393 88.38 79.0729 88.38 79.8751C88.38 81.5476 87.0362 82.513 85.4588 82.7033L88.7452 86.8912ZM82.0702 77.9579V81.9283H84.5386C85.4734 81.9283 86.2037 81.6835 86.6273 81.2892C87.0362 80.9085 87.2407 80.4326 87.2407 79.9023C87.2407 78.9233 86.5981 77.9579 84.5678 77.9579H82.0702V77.9579ZM100.693 81.9147C100.693 82.8529 100.459 83.7095 100.006 84.4845C99.5391 85.2596 98.8964 85.8715 98.0785 86.3202C97.2459 86.7689 96.3404 87 95.3179 87C94.573 87 93.8719 86.8641 93.2 86.6057C92.5428 86.3474 91.9731 85.9938 91.5057 85.5315C91.0383 85.0964 90.6732 84.5661 90.3957 83.9407C90.1327 83.3152 89.9867 82.6625 89.9867 81.9691C89.9867 81.0309 90.2204 80.1742 90.6878 79.3992C91.1406 78.6242 91.7832 77.9987 92.6158 77.55C93.4337 77.1013 94.3539 76.8837 95.3617 76.8837C96.1067 76.8837 96.8078 77.0061 97.4796 77.2644C98.1369 77.5364 98.7065 77.8899 99.1739 78.325C99.6413 78.7873 100.021 79.3176 100.284 79.9295C100.562 80.555 100.693 81.2076 100.693 81.9147V81.9147ZM99.5391 81.9691C99.5391 80.8541 99.1009 79.8207 98.3706 79.0729C97.6403 78.325 96.5448 77.8491 95.3179 77.8491C94.5292 77.8491 93.8135 78.0395 93.1708 78.393C92.5282 78.7737 92.0315 79.2632 91.681 79.8751C91.3304 80.5006 91.1552 81.1804 91.1552 81.9147C91.1552 83.016 91.5934 84.063 92.3237 84.7973C93.054 85.5451 94.1494 86.021 95.3617 86.021C96.1505 86.021 96.8662 85.8307 97.5088 85.4635C98.1661 85.11 98.6627 84.6069 99.0133 83.995C99.3638 83.3832 99.5391 82.7033 99.5391 81.9691V81.9691ZM106.287 83.016H104.023V86.8912H102.899V76.9789H106.462C109.062 76.9653 110.202 78.4202 110.202 79.9567C110.202 80.8133 109.851 81.5611 109.223 82.1186C108.58 82.6761 107.543 83.016 106.287 83.016ZM106.375 77.9579H104.023V82.0506H106.316C107.266 82.0506 108.011 81.7923 108.434 81.3844C108.858 80.9901 109.062 80.5006 109.062 79.9839C109.062 79.0185 108.463 77.9579 106.375 77.9579V77.9579ZM112.159 86.8912V76.9789H113.283V86.8912H112.159ZM116.234 86.8912V76.9789H122.894V77.9443H117.359V81.3708H122.427V82.3362H117.359V85.9258H122.953V86.8912H116.234ZM125.261 86.8912V76.9789H128.43C129.248 76.9789 130.008 77.1013 130.709 77.3596C131.41 77.6044 132.009 77.9579 132.491 78.393C133.469 79.2768 134.053 80.5278 134.053 81.9147C134.053 82.6353 133.907 83.3152 133.615 83.9407C133.323 84.5661 132.914 85.0828 132.418 85.5179C131.41 86.3746 129.978 86.8912 128.43 86.8912H125.261V86.8912ZM126.385 77.9579V85.9122H128.386C129.277 85.9122 130.066 85.7355 130.738 85.3956C131.424 85.0556 131.965 84.5933 132.33 83.995C132.71 83.3968 132.9 82.7033 132.9 81.9419C132.9 80.8133 132.447 79.8071 131.673 79.0865C130.913 78.3794 129.73 77.9579 128.386 77.9579H126.385V77.9579ZM144.102 86.8912L142.934 84.3622H137.135L135.967 86.8912H134.828L139.414 76.9789H140.685L145.286 86.8912H144.102ZM142.51 83.4104L140.027 78.0531L137.559 83.4104H142.51ZM146.805 86.8912V76.9789H149.974C150.792 76.9789 151.552 77.1013 152.253 77.3596C152.954 77.6044 153.553 77.9579 154.035 78.393C155.013 79.2768 155.597 80.5278 155.597 81.9147C155.597 82.6353 155.451 83.3152 155.159 83.9407C154.867 84.5661 154.458 85.0828 153.962 85.5179C152.954 86.3746 151.522 86.8912 149.974 86.8912H146.805V86.8912ZM147.929 77.9579V85.9122H149.93C150.821 85.9122 151.61 85.7355 152.282 85.3956C152.968 85.0556 153.509 84.5933 153.874 83.995C154.254 83.3968 154.444 82.7033 154.444 81.9419C154.444 80.8133 153.991 79.8071 153.217 79.0865C152.457 78.3794 151.274 77.9579 149.93 77.9579H147.929V77.9579ZM157.803 86.8912V76.9789H164.463V77.9443H158.928V81.3708H163.996V82.3362H158.928V85.9258H164.522V86.8912H157.803ZM169.78 86.9864C168.772 86.9864 167.808 86.6329 167.18 86.1162C166.523 85.5859 166.099 84.8789 166.012 84.1854L167.063 83.9135C167.18 84.4981 167.501 84.9876 168.027 85.3956C168.539 85.8035 169.123 86.0074 169.78 86.0074C170.393 86.0074 170.963 85.8715 171.416 85.5723C171.869 85.2868 172.161 84.7973 172.161 84.199C172.161 83.5055 171.766 83.0568 171.27 82.7849C170.919 82.5945 170.613 82.513 170.262 82.445L168.86 82.1866C168.568 82.1322 168.261 82.0371 167.925 81.9011C167.589 81.7515 167.297 81.5747 167.049 81.3436C166.552 80.8949 166.304 80.3238 166.304 79.6303C166.304 79.0865 166.464 78.597 166.786 78.1754C167.107 77.7403 167.516 77.4276 168.027 77.1964C168.539 76.9789 169.079 76.8701 169.678 76.8701C171.971 76.8701 172.979 78.189 173.198 79.2496L172.175 79.5488C172 78.8417 171.314 77.8355 169.663 77.8355C168.524 77.8083 167.414 78.5562 167.428 79.5896C167.428 80.351 167.94 80.9629 168.977 81.1532L170.32 81.398C171.226 81.5611 171.927 81.8467 172.395 82.2682C172.716 82.5401 172.95 82.8529 173.096 83.1792C173.242 83.5191 173.315 83.8183 173.315 84.0902C173.329 85.8307 171.752 87.0272 169.78 86.9864V86.9864Z" fill="url(#paint3_linear_104_2)"/>
</g>
<defs>
<linearGradient id="paint0_linear_104_2" x1="90.7407" y1="1.26465" x2="133.563" y2="1.26465" gradientUnits="userSpaceOnUse">
<stop stop-color="#8F5E25"/>
<stop offset="0.5" stop-color="#FBF4A1"/>
<stop offset="1" stop-color="#8F5E25"/>
</linearGradient>
<linearGradient id="paint1_linear_104_2" x1="123.926" y1="1.26465" x2="154.259" y2="1.26465" gradientUnits="userSpaceOnUse">
<stop stop-color="#8F5E25"/>
<stop offset="0.5" stop-color="#FBF4A1"/>
<stop offset="1" stop-color="#8F5E25"/>
</linearGradient>
<linearGradient id="paint2_linear_104_2" x1="106.417" y1="0" x2="111.1" y2="0" gradientUnits="userSpaceOnUse">
<stop stop-color="#8F5E25"/>
<stop offset="0.5" stop-color="#FBF4A1"/>
<stop offset="1" stop-color="#8F5E25"/>
</linearGradient>
<linearGradient id="paint3_linear_104_2" x1="71.6852" y1="76.8701" x2="173.315" y2="76.8701" gradientUnits="userSpaceOnUse">
<stop stop-color="#8F5E25"/>
<stop offset="0.5" stop-color="#FBF4A1"/>
<stop offset="1" stop-color="#8F5E25"/>
</linearGradient>
<clipPath id="clip0_104_2">
<rect width="245" height="87" fill="white"/>
</clipPath>
</defs>
</svg>
